<svg width="184" height="216" viewBox="0 0 184 216" fill="none" xmlns="http://www.w3.org/2000/svg">
<path opacity="0.3" d="M71.5529 5.2376L163.284 56.7134C176.084 63.8964 184 77.3687 184 91.972V193.413C184 208.016 176.084 221.488 163.284 228.671L71.5529 280.147C59.1082 287.13 43.8915 287.13 31.4459 280.147L-60.2843 228.671C-73.0846 221.488 -81 208.016 -81 193.413V91.972C-81 77.3687 -73.0846 63.8964 -60.2843 56.7134L31.4459 5.2376C43.8915 -1.74587 59.1082 -1.74587 71.5529 5.2376ZM-65.7115 92.3826V193.413C-65.7115 202.478 -60.7887 210.857 -52.8024 215.339L37.6254 266.083C38.7964 266.537 40.0445 266.772 41.3078 266.772C46.9366 266.772 51.4998 262.208 51.4998 256.58V174.92C51.4998 161.611 44.0922 149.409 32.2849 143.27L25.5536 139.77C23.966 139.093 22.3982 138.353 20.8553 137.548L-65.7115 92.3826ZM29.1257 128.511C45.3736 136.988 57.6699 136.988 73.9178 128.511L161.738 79.209C159.576 74.2574 155.825 70.0324 150.918 67.2787L64.072 18.5702C56.2743 14.1945 46.7254 14.1945 38.9277 18.5702L-47.7534 67.2787C-52.6606 70.0324 -56.411 74.2574 -58.5737 79.209L29.1257 128.511ZM51.4998 35.673C70.6101 35.673 86.2112 45.0652 87.1301 56.867L87.1729 77.0793C87.1729 89.3929 71.2018 99.3746 51.4998 99.3746C31.7979 99.3746 15.8268 89.3929 15.8268 77.0793V56.867C16.7885 45.0652 32.3896 35.673 51.4998 35.673ZM51.5036 71.3461C68.0531 71.3461 81.469 64.6381 81.469 56.3634C81.469 48.0887 68.0531 41.3807 51.5036 41.3807C34.9542 41.3807 21.5383 48.0887 21.5383 56.3634C21.5383 64.6381 34.9542 71.3461 51.5036 71.3461Z" fill="#BCAAFC"/>
</svg>
