<svg width="48" height="48" viewBox="0 0 48 48" fill="none" xmlns="http://www.w3.org/2000/svg">
<rect width="48" height="48" rx="12" fill="#8E2DFD"/>
<g clip-path="url(#clip0_61_778)">
<path d="M26.3298 6.6607L37.9013 13.1541C39.516 14.0603 40.5145 15.7597 40.5145 17.6019V30.3982C40.5145 32.2403 39.516 33.9397 37.9013 34.8458L26.3298 41.3393C24.76 42.2202 22.8405 42.2202 21.2705 41.3393L9.69914 34.8458C8.08444 33.9397 7.08594 32.2403 7.08594 30.3982V17.6019C7.08594 15.7597 8.08444 14.0603 9.69914 13.1541L21.2705 6.6607C22.8405 5.77977 24.76 5.77977 26.3298 6.6607ZM9.01451 17.6537V30.3982C9.01451 31.5418 9.6355 32.5987 10.6429 33.164L22.05 39.5652C22.1977 39.6224 22.3552 39.6521 22.5145 39.6521C23.2246 39.6521 23.8002 39.0764 23.8002 38.3664V28.0654C23.8002 26.3866 22.8658 24.8473 21.3763 24.0728L20.5272 23.6314C20.3269 23.546 20.1292 23.4527 19.9345 23.351L9.01451 17.6537ZM20.9778 22.2112C23.0274 23.2805 24.5785 23.2805 26.6281 22.2112L37.7063 15.9919C37.4335 15.3672 36.9604 14.8343 36.3414 14.4869L25.3861 8.34256C24.4025 7.79058 23.1979 7.79058 22.2143 8.34256L11.2798 14.4869C10.6608 14.8343 10.1877 15.3672 9.91492 15.9919L20.9778 22.2112ZM23.8002 10.5C26.2109 10.5 28.1789 11.6848 28.2948 13.1735L28.3002 15.7232C28.3002 17.2765 26.2855 18.5357 23.8002 18.5357C21.3149 18.5357 19.3002 17.2765 19.3002 15.7232V13.1735C19.4215 11.6848 21.3895 10.5 23.8002 10.5ZM23.8007 15C25.8883 15 27.5807 14.1538 27.5807 13.11C27.5807 12.0662 25.8883 11.22 23.8007 11.22C21.7131 11.22 20.0207 12.0662 20.0207 13.11C20.0207 14.1538 21.7131 15 23.8007 15Z" fill="white"/>
</g>
<defs>
<clipPath id="clip0_61_778">
<rect width="33.6" height="36" fill="white" transform="translate(7 6)"/>
</clipPath>
</defs>
</svg>
