<svg width="67" height="48" viewBox="0 0 67 48" fill="none" xmlns="http://www.w3.org/2000/svg">
<path d="M30.3977 0.199996L16.5977 21.8C22.9977 22.8 27.7977 27.4 27.7977 34.6C27.7977 42.4 21.7977 48 14.1977 48C6.59766 48 0.597656 42.8 0.597656 33C0.597656 27.8 3.19766 21.8 6.39766 17L17.3977 0.199996H30.3977ZM66.5977 0.199996L52.7977 21.8C59.1977 22.8 63.9977 27.4 63.9977 34.6C63.9977 42.4 57.9977 48 50.3977 48C42.7977 48 36.7977 42.8 36.7977 33C36.7977 27.8 39.3977 21.8 42.5977 17L53.5977 0.199996H66.5977Z" fill="#111220"/>
</svg>
